<?xml version="1.0" standalone="no"?>
<!DOCTYPE svg PUBLIC "-//W3C//DTD SVG 20010904//EN"
 "http://www.w3.org/TR/2001/REC-SVG-20010904/DTD/svg10.dtd">
<svg version="1.0" xmlns="http://www.w3.org/2000/svg"
 width="512.000000pt" height="512.000000pt" viewBox="0 0 512.000000 512.000000"
 preserveAspectRatio="xMidYMid meet">

<g transform="translate(0.000000,512.000000) scale(0.100000,-0.100000)"
 stroke="none">
<path d="M143 4796 c-31 -27 -31 -29 -13 -261 32 -417 47 -1096 33 -1500 -9
-247 -5 -288 27 -305 55 -29 105 4 116 77 4 27 8 302 8 613 1 524 -8 808 -34
1120 -5 58 -7 106 -6 107 1 2 108 -15 237 -37 1073 -181 2493 -311 3642 -332
l149 -3 25 29 c27 32 25 67 -7 100 -16 16 -45 19 -301 27 -1286 40 -2552 162
-3610 349 -124 22 -229 40 -232 40 -3 0 -18 -11 -34 -24z"/>
<path d="M4556 4399 c-34 -27 -36 -79 -4 -109 20 -19 34 -20 210 -20 174 0
188 -1 188 -18 0 -10 -11 -94 -25 -187 -78 -538 -129 -1057 -167 -1680 -7
-125 -13 -443 -13 -787 0 -514 -2 -578 -15 -578 -9 0 -67 7 -130 15 -156 20
-617 70 -880 94 -630 59 -1661 123 -1693 105 -8 -5 -71 -68 -141 -141 -112
-117 -126 -136 -126 -167 0 -38 36 -76 73 -76 12 0 67 46 142 120 l121 120
200 -10 c809 -42 1837 -131 2373 -205 146 -21 187 -20 209 5 16 19 17 58 14
533 -3 509 5 811 33 1232 36 523 100 1100 171 1542 13 84 24 159 24 168 0 9
-11 27 -25 40 l-24 25 -244 0 c-232 0 -246 -1 -271 -21z"/>
<path d="M1113 3790 c-12 -5 -26 -17 -31 -27 -5 -10 -13 -97 -16 -193 -17
-416 -48 -819 -92 -1160 -14 -107 -28 -216 -31 -241 -6 -54 7 -86 44 -100 47
-18 103 23 103 74 0 8 30 -1 78 -25 121 -59 223 -81 351 -76 94 3 114 7 174
35 178 84 287 276 257 457 -20 122 -109 256 -216 323 -24 16 -44 30 -44 33 0
3 20 18 45 33 236 150 211 500 -48 668 -97 63 -174 84 -302 83 -60 0 -122 -6
-137 -12 -28 -11 -28 -11 -28 26 0 58 -10 82 -41 97 -32 17 -35 17 -66 5z
m396 -279 c229 -71 320 -332 158 -451 -74 -55 -162 -75 -324 -75 -78 0 -145 3
-148 7 -10 9 16 497 25 503 5 3 32 11 61 19 75 20 157 19 228 -3z m-34 -706
c138 -37 240 -104 292 -193 38 -65 44 -178 13 -250 -28 -65 -102 -134 -167
-156 -54 -19 -173 -21 -241 -5 -26 6 -93 33 -149 60 -85 41 -103 53 -103 72 0
12 9 103 20 202 11 99 23 207 26 239 l6 59 122 -6 c66 -3 148 -13 181 -22z"/>
<path d="M2078 3614 c-38 -20 -43 -49 -23 -161 37 -221 118 -492 217 -731 l60
-143 -21 -247 c-28 -327 -28 -335 5 -361 31 -24 43 -26 79 -9 36 16 42 46 66
347 l21 263 62 97 c83 127 167 278 231 415 64 135 155 376 155 408 -1 52 -56
84 -107 63 -26 -11 -34 -24 -53 -82 -35 -108 -104 -271 -165 -394 -81 -162
-176 -322 -186 -312 -4 4 -21 42 -37 84 -74 186 -144 430 -177 614 -8 50 -18
100 -20 112 -3 13 -19 29 -35 38 -35 18 -38 18 -72 -1z"/>
<path d="M3143 3528 c-12 -6 -27 -25 -32 -42 -5 -17 -12 -139 -15 -271 -8
-358 -34 -670 -87 -1040 -16 -115 -27 -220 -24 -232 3 -13 18 -29 33 -37 59
-30 444 -72 596 -64 88 4 116 22 116 75 0 59 -25 73 -137 73 -144 0 -434 28
-449 43 -1 1 8 77 21 168 13 92 29 229 36 304 l13 138 140 -7 c78 -3 184 -13
236 -21 185 -30 185 -30 209 -6 30 30 26 87 -9 112 -40 29 -325 69 -494 69
l-69 0 6 88 c4 48 10 183 14 301 l6 214 138 -7 c76 -4 179 -13 231 -21 191
-31 183 -31 213 -1 22 22 26 33 21 59 -3 18 -15 39 -25 48 -53 44 -618 91
-688 57z"/>
<path d="M4143 3450 c-12 -5 -27 -19 -33 -31 -7 -12 -34 -290 -63 -646 l-52
-625 28 -24 c16 -13 39 -24 53 -24 28 0 61 30 68 62 3 13 26 275 51 583 25
308 48 581 51 607 5 43 3 50 -24 78 -32 31 -43 34 -79 20z"/>
<path d="M166 2528 c-24 -22 -26 -32 -36 -168 -26 -364 -62 -704 -106 -1014
-27 -193 -25 -219 18 -235 13 -4 210 -5 438 -2 228 4 468 5 532 3 l117 -4 -5
-82 c-14 -211 -44 -394 -90 -549 -31 -104 -31 -130 2 -156 15 -12 34 -21 43
-21 68 1 574 343 588 398 14 59 -38 112 -91 92 -14 -5 -55 -32 -90 -60 -78
-61 -268 -191 -273 -186 -2 1 3 35 12 74 23 113 43 284 51 442 6 145 6 146
-18 174 l-24 29 -536 -2 -535 -1 18 122 c35 244 69 580 104 1035 6 79 5 84
-19 108 -31 31 -67 32 -100 3z"/>
<path d="M4007 1949 c-46 -27 -41 -105 9 -128 35 -16 48 -14 78 10 51 40 23
129 -41 129 -16 0 -36 -5 -46 -11z"/>
</g>
</svg>
