<?xml version="1.0" standalone="no"?>
<!DOCTYPE svg PUBLIC "-//W3C//DTD SVG 20010904//EN"
 "http://www.w3.org/TR/2001/REC-SVG-20010904/DTD/svg10.dtd">
<svg version="1.0" xmlns="http://www.w3.org/2000/svg"
 width="512.000000pt" height="512.000000pt" viewBox="0 0 512.000000 512.000000"
 preserveAspectRatio="xMidYMid meet">

<g transform="translate(0.000000,512.000000) scale(0.100000,-0.100000)"
 stroke="none">
<path d="M3415 5109 c-343 -50 -650 -232 -853 -507 -59 -80 -172 -289 -172
-318 0 -20 -2 -19 -71 26 -65 42 -172 87 -279 116 -50 14 -103 18 -230 19
-142 0 -177 -3 -250 -23 -352 -96 -614 -361 -712 -720 -17 -62 -21 -107 -22
-232 -1 -190 20 -284 95 -438 l50 -103 -44 -67 c-80 -124 -102 -196 -102 -342
0 -91 5 -129 22 -185 62 -195 215 -350 407 -411 106 -34 329 -46 388 -21 51
21 74 67 59 118 -17 58 -44 69 -163 69 -57 0 -129 4 -161 10 -250 41 -412 297
-339 537 23 73 59 131 124 199 57 59 55 90 -9 190 -98 155 -139 306 -130 479
10 170 60 307 163 442 141 185 349 290 589 300 217 9 400 -54 549 -188 67 -60
91 -72 130 -65 49 9 71 41 100 145 148 523 674 856 1207 765 602 -103 998
-683 874 -1276 -43 -204 -139 -380 -296 -543 -37 -38 -70 -82 -74 -97 -10 -41
19 -88 84 -134 163 -116 216 -344 124 -528 -33 -65 -111 -146 -173 -180 -102
-55 -107 -56 -1076 -56 l-891 0 -26 -25 c-31 -32 -39 -71 -21 -113 27 -66 -15
-63 1002 -60 l917 3 80 28 c105 37 181 84 252 157 191 192 235 470 114 715
-22 44 -61 103 -86 132 l-46 52 53 66 c125 156 217 349 259 545 31 144 31 372
1 510 -87 400 -334 715 -697 891 -224 109 -486 152 -720 118z"/>
<path d="M3519 4652 c-74 -66 -12 -186 87 -167 58 10 92 76 69 132 -28 67
-102 83 -156 35z"/>
<path d="M3859 4561 c-31 -31 -38 -75 -19 -112 6 -10 42 -39 80 -64 179 -118
299 -330 300 -528 0 -63 39 -107 95 -107 82 0 111 46 100 164 -19 222 -132
439 -299 575 -133 107 -202 127 -257 72z"/>
<path d="M2750 3791 c-101 -33 -203 -121 -241 -207 -46 -104 -44 -206 6 -238
69 -45 147 0 159 90 7 56 35 106 79 138 42 31 160 35 213 8 104 -53 144 -173
91 -273 -32 -60 -87 -97 -165 -110 -121 -19 -142 -52 -142 -224 0 -91 4 -123
17 -145 31 -54 103 -66 150 -26 26 22 28 31 33 111 l5 87 52 18 c240 84 345
368 217 586 -35 60 -115 131 -182 162 -48 22 -73 27 -162 29 -58 1 -116 -1
-130 -6z"/>
<path d="M2788 2561 c-27 -24 -33 -36 -33 -71 0 -35 6 -47 33 -71 36 -32 69
-36 112 -14 91 47 50 185 -54 185 -14 0 -40 -13 -58 -29z"/>
<path d="M1929 2061 c-49 -49 -35 -126 28 -156 31 -15 40 -15 71 -3 22 8 44
27 55 47 17 28 18 38 8 71 -22 73 -108 95 -162 41z"/>
<path d="M1903 1625 c-136 -37 -239 -123 -301 -252 -36 -76 -37 -82 -37 -188
0 -91 4 -120 23 -167 110 -275 446 -378 689 -212 67 46 116 106 155 191 62
131 49 307 -32 431 -106 165 -313 246 -497 197z m197 -200 c131 -46 199 -185
160 -327 -15 -53 -91 -133 -148 -155 -57 -21 -143 -22 -193 0 -56 23 -114 82
-139 139 -18 42 -21 65 -18 118 6 74 23 113 70 160 71 71 177 97 268 65z"/>
<path d="M1027 810 c-139 -35 -232 -153 -231 -295 1 -174 141 -304 314 -292
111 7 197 65 252 170 31 59 32 182 1 248 -57 125 -208 201 -336 169z m136
-230 c58 -64 11 -160 -78 -160 -14 0 -39 13 -57 29 -27 24 -33 36 -33 69 0 94
104 132 168 62z"/>
<path d="M321 186 c-87 -48 -50 -186 49 -186 51 0 100 49 100 99 0 75 -83 124
-149 87z"/>
</g>
</svg>
