<?xml version="1.0" standalone="no"?>
<!DOCTYPE svg PUBLIC "-//W3C//DTD SVG 20010904//EN"
 "http://www.w3.org/TR/2001/REC-SVG-20010904/DTD/svg10.dtd">
<svg version="1.0" xmlns="http://www.w3.org/2000/svg"
 width="512.000000pt" height="512.000000pt" viewBox="0 0 512.000000 512.000000"
 preserveAspectRatio="xMidYMid meet">

<g transform="translate(0.000000,512.000000) scale(0.100000,-0.100000)"
>
<path d="M2370 5114 c-19 -2 -78 -9 -130 -15 -791 -90 -1522 -586 -1924 -1305
-146 -262 -252 -587 -297 -914 -20 -143 -18 -527 4 -670 75 -488 249 -889 546
-1257 773 -959 2129 -1231 3211 -643 125 68 154 91 179 143 43 89 15 193 -68
252 -36 25 -52 30 -104 30 -38 0 -73 -6 -92 -16 -168 -91 -236 -124 -330 -162
-323 -130 -670 -180 -1011 -146 -854 84 -1577 663 -1843 1475 -148 452 -148
896 0 1348 214 653 723 1162 1378 1376 449 147 894 147 1345 -1 488 -160 893
-481 1171 -929 162 -262 273 -595 305 -919 45 -460 -70 -940 -326 -1351 -56
-90 -59 -98 -59 -160 0 -78 26 -127 88 -168 56 -37 153 -39 210 -3 60 37 182
235 276 449 469 1060 169 2297 -734 3025 -364 293 -768 469 -1245 542 -100 15
-472 28 -550 19z"/>
<path d="M1563 3606 c-185 -45 -337 -205 -374 -394 -23 -121 7 -213 88 -263
54 -34 152 -34 206 0 49 30 84 84 92 141 13 89 46 130 105 130 59 0 92 -41
105 -130 8 -57 43 -111 92 -141 30 -19 52 -24 103 -24 77 0 127 26 166 85 74
111 20 325 -115 461 -126 126 -299 176 -468 135z"/>
<path d="M3333 3606 c-185 -45 -337 -205 -374 -394 -23 -121 7 -213 88 -263
54 -34 152 -34 206 0 49 30 84 84 92 141 13 89 46 130 105 130 59 0 92 -41
105 -130 8 -57 43 -111 92 -141 30 -19 52 -24 103 -24 77 0 127 26 166 85 74
111 20 325 -115 461 -126 126 -299 176 -468 135z"/>
<path d="M1632 2199 c-47 -14 -109 -79 -123 -131 -15 -56 -5 -123 26 -170 29
-44 154 -152 247 -214 85 -57 251 -136 353 -168 158 -50 237 -61 430 -60 257
1 387 31 622 145 204 99 399 261 424 352 32 119 -43 237 -162 253 -73 10 -121
-10 -194 -79 -128 -120 -271 -198 -443 -244 -85 -23 -117 -26 -252 -26 -135 0
-167 3 -251 25 -174 47 -324 130 -447 247 -80 77 -141 95 -230 70z"/>
</g>
</svg>
