<?xml version="1.0" standalone="no"?>
<!DOCTYPE svg PUBLIC "-//W3C//DTD SVG 20010904//EN"
 "http://www.w3.org/TR/2001/REC-SVG-20010904/DTD/svg10.dtd">
<svg version="1.0" xmlns="http://www.w3.org/2000/svg"
 width="512.000000pt" height="512.000000pt" viewBox="0 0 512.000000 512.000000"
 preserveAspectRatio="xMidYMid meet">

<g transform="translate(0.000000,512.000000) scale(0.100000,-0.100000)"
 stroke="none">
<path d="M2380 5114 c-19 -2 -78 -9 -130 -15 -797 -89 -1527 -580 -1929 -1297
-333 -595 -410 -1340 -205 -1997 70 -227 188 -479 230 -495 33 -13 73 5 93 41
14 26 12 33 -37 138 -66 139 -108 244 -139 346 -187 614 -138 1237 144 1804
293 590 835 1044 1466 1231 493 145 1041 128 1514 -46 226 -83 495 -235 672
-379 128 -105 140 -110 185 -74 19 15 26 30 26 56 0 41 -22 64 -168 175 -336
254 -731 421 -1157 488 -124 20 -474 35 -565 24z"/>
<path d="M4371 4244 c-36 -45 -32 -55 78 -190 184 -229 344 -538 424 -819 69
-244 92 -411 92 -670 -1 -284 -33 -501 -110 -739 -286 -882 -1043 -1521 -1957
-1651 -230 -33 -541 -28 -745 11 -41 8 -77 14 -79 14 -2 0 -4 20 -4 45 0 26
-7 59 -15 76 -15 29 -15 30 18 62 72 68 98 175 62 260 -14 35 -14 36 13 56 15
11 41 43 56 71 25 46 28 60 24 121 l-4 69 336 0 c371 0 405 4 472 60 128 106
97 320 -57 391 -38 18 -81 19 -798 19 -827 0 -798 -2 -860 57 -15 15 -32 43
-37 62 -5 20 -10 155 -10 300 0 293 -4 319 -59 382 -45 54 -100 79 -174 79
-93 0 -167 -43 -210 -124 -21 -39 -22 -57 -27 -316 -7 -319 -10 -335 -104
-455 -128 -163 -176 -256 -202 -391 -19 -104 -19 -493 1 -587 33 -157 146
-301 292 -375 122 -60 156 -63 668 -60 l450 3 49 29 48 28 87 -16 c306 -58
611 -59 918 -5 833 147 1542 702 1893 1481 88 194 162 457 197 693 26 181 24
545 -5 722 -71 438 -236 829 -491 1166 -108 142 -134 167 -175 167 -25 0 -40
-7 -55 -26z m-3280 -2103 l24 -19 5 -299 c5 -296 5 -298 31 -353 33 -70 89
-126 159 -159 l55 -26 776 -5 c746 -5 778 -6 798 -24 23 -21 28 -74 11 -106
-20 -37 -59 -40 -526 -40 -441 0 -455 -1 -474 -20 -19 -19 -24 -37 -21 -70 3
-24 50 -60 77 -60 36 0 74 -42 74 -82 -1 -60 -40 -88 -124 -88 -69 0 -83 -6
-101 -40 -27 -52 13 -110 76 -110 32 0 69 -44 69 -82 -1 -60 -40 -88 -124 -88
-69 0 -83 -6 -101 -40 -26 -51 13 -110 74 -110 30 0 71 -46 71 -79 0 -43 -9
-60 -41 -76 -23 -13 -99 -15 -447 -15 -242 0 -442 4 -473 10 -157 30 -289 162
-319 319 -16 88 -13 439 6 529 19 94 65 182 144 282 33 41 76 105 95 142 55
103 65 169 65 431 0 277 5 294 86 296 18 1 42 -8 55 -18z"/>
<path d="M1285 4079 c-125 -18 -289 -81 -313 -120 -27 -43 11 -109 63 -109 11
0 52 13 91 30 222 93 465 70 696 -65 87 -51 115 -55 146 -22 32 34 29 79 -9
111 -87 73 -292 156 -432 175 -89 12 -156 12 -242 0z"/>
<path d="M3417 3835 c-291 -59 -413 -87 -427 -100 -45 -40 -12 -125 48 -125
40 0 818 157 842 170 25 13 43 55 35 81 -8 24 -53 59 -74 58 -9 -1 -199 -38
-424 -84z"/>
<path d="M1475 3626 c-57 -26 -117 -88 -140 -143 -20 -47 -39 -221 -32 -295
17 -187 225 -299 395 -212 98 51 143 133 157 289 6 62 4 73 -15 98 -16 19 -30
27 -54 27 -50 0 -68 -28 -83 -127 -6 -47 -19 -96 -28 -109 -51 -79 -169 -74
-212 9 -12 25 -14 49 -8 131 4 56 13 115 20 132 18 43 61 70 120 77 56 6 85
32 85 78 0 70 -104 93 -205 45z"/>
<path d="M3180 3475 c-56 -18 -122 -72 -156 -130 -20 -34 -28 -71 -40 -167
-16 -137 -12 -182 22 -249 68 -135 239 -186 375 -113 98 54 135 126 146 280 6
90 6 90 -22 112 -34 27 -55 28 -88 2 -27 -21 -31 -35 -43 -145 -5 -51 -11 -64
-44 -97 -31 -31 -45 -38 -76 -38 -50 0 -96 29 -117 73 -15 31 -16 48 -6 139
16 147 40 184 131 195 24 3 51 10 61 15 27 14 40 57 27 89 -20 48 -82 61 -170
34z"/>
<path d="M1702 2185 c-27 -34 -28 -65 -2 -93 22 -24 46 -29 179 -36 260 -16
625 -107 930 -233 73 -31 144 -55 158 -55 48 -1 77 54 57 107 -8 20 -98 66
-239 120 -312 121 -658 199 -936 212 l-125 6 -22 -28z"/>
</g>
</svg>
