<?xml version="1.0" standalone="no"?>
<!DOCTYPE svg PUBLIC "-//W3C//DTD SVG 20010904//EN"
 "http://www.w3.org/TR/2001/REC-SVG-20010904/DTD/svg10.dtd">
<svg version="1.0" xmlns="http://www.w3.org/2000/svg"
 width="512.000000pt" height="512.000000pt" viewBox="0 0 512.000000 512.000000"
 preserveAspectRatio="xMidYMid meet">

<g transform="translate(0.000000,512.000000) scale(0.100000,-0.100000)">
<path d="M2118 5099 c-43 -22 -78 -81 -78 -129 0 -50 35 -107 80 -130 33 -17
59 -20 165 -20 l125 0 0 -109 0 -108 -77 -7 c-299 -26 -627 -129 -893 -280
l-95 -54 -85 83 c-102 99 -151 132 -221 151 -107 28 -211 10 -304 -52 -62 -41
-282 -263 -319 -323 -41 -65 -59 -134 -54 -216 6 -106 39 -168 153 -284 l94
-97 -36 -59 c-136 -225 -243 -532 -290 -835 -24 -159 -24 -500 1 -660 164
-1062 1010 -1863 2071 -1960 840 -77 1651 315 2126 1029 545 820 495 1929
-122 2698 -388 484 -938 789 -1538 854 l-111 12 0 109 0 108 125 0 c106 0 132
3 165 20 45 23 80 80 80 130 0 50 -35 107 -80 130 -37 19 -58 20 -442 20 -381
-1 -405 -2 -440 -21z m628 -800 c296 -29 611 -135 862 -291 140 -87 242 -169
364 -290 303 -304 498 -690 569 -1133 20 -118 17 -465 -4 -587 -75 -435 -266
-807 -569 -1110 -300 -300 -671 -490 -1103 -565 -139 -24 -471 -24 -610 0
-432 75 -803 265 -1103 565 -303 303 -494 675 -569 1110 -21 122 -24 469 -4
587 97 603 430 1110 933 1423 365 227 812 332 1234 291z m-1717 -153 l63 -64
-72 -69 c-77 -72 -172 -169 -211 -216 l-24 -29 -63 65 c-90 94 -90 94 65 249
97 97 134 128 153 128 18 0 44 -19 89 -64z"/>
<path d="M2420 4020 c-124 -10 -202 -25 -330 -61 -650 -186 -1125 -728 -1231
-1404 -16 -104 -17 -398 0 -500 59 -371 214 -683 470 -949 267 -275 602 -447
991 -507 109 -17 371 -17 480 0 389 60 724 232 991 507 256 266 411 578 470
949 17 102 16 396 0 500 -106 676 -580 1217 -1231 1404 -189 54 -415 77 -610
61z m-8 -414 c3 -98 6 -119 24 -143 65 -86 183 -86 248 0 18 24 21 45 24 143
2 63 5 114 7 114 33 0 203 -39 283 -65 397 -128 719 -429 878 -818 37 -91 77
-243 89 -334 l7 -53 -110 0 c-97 0 -113 -3 -143 -23 -94 -63 -88 -193 12 -252
26 -15 57 -21 137 -23 l103 -4 -7 -47 c-87 -619 -586 -1118 -1206 -1205 l-48
-7 0 103 c0 78 -4 111 -18 138 -53 107 -211 107 -264 0 -14 -27 -18 -60 -18
-138 l0 -103 -47 7 c-621 87 -1120 586 -1207 1205 l-7 47 103 4 c80 2 111 8
137 23 100 59 106 189 12 252 -30 20 -46 23 -143 23 l-110 0 7 53 c12 91 52
243 89 334 159 390 481 690 879 818 89 29 222 60 274 64 8 1 12 -34 15 -113z"/>
<path d="M2504 3130 c-25 -12 -49 -35 -62 -59 -22 -38 -22 -46 -22 -453 0
-471 -1 -464 80 -505 42 -22 56 -23 249 -23 184 0 209 2 246 20 110 53 111
212 1 264 -26 12 -64 16 -155 16 l-120 0 -3 329 c-3 315 -4 331 -24 357 -51
70 -121 89 -190 54z"/>
</g>
</svg>
