<?xml version="1.0" standalone="no"?>
<!DOCTYPE svg PUBLIC "-//W3C//DTD SVG 20010904//EN"
 "http://www.w3.org/TR/2001/REC-SVG-20010904/DTD/svg10.dtd">
<svg version="1.0" xmlns="http://www.w3.org/2000/svg"
 width="512.000000pt" height="512.000000pt" viewBox="0 0 512.000000 512.000000"
 preserveAspectRatio="xMidYMid meet">
<metadata>
Created by potrace 1.16, written by Peter Selinger 2001-2019
</metadata>
<g transform="translate(0.000000,512.000000) scale(0.100000,-0.100000)"
stroke="none">
<path d="M2300 5114 c-327 -39 -599 -118 -875 -254 -678 -333 -1176 -951
-1355 -1682 -57 -233 -65 -308 -65 -618 0 -310 8 -386 65 -618 234 -950 1010
-1698 1962 -1893 252 -51 596 -65 848 -34 1160 143 2081 1065 2225 2225 20
164 20 482 0 637 -31 237 -87 452 -170 655 -81 198 -182 379 -222 397 -72 33
-153 -16 -153 -92 0 -12 42 -106 93 -207 181 -357 257 -674 257 -1066 0 -202
-11 -321 -46 -489 -94 -448 -315 -855 -638 -1174 -63 -63 -97 -90 -99 -80
-109 362 -220 561 -433 773 -305 306 -696 466 -1134 466 -438 0 -829 -160
-1134 -466 -213 -212 -324 -411 -433 -773 -2 -10 -36 17 -99 80 -373 369 -614
867 -674 1398 -18 153 -8 505 18 651 45 247 101 419 212 646 349 715 1042
1206 1845 1304 114 14 415 14 531 0 409 -49 789 -198 1123 -439 69 -50 91 -61
123 -61 56 0 98 43 98 98 0 22 -3 48 -6 56 -4 9 -52 49 -108 90 -317 229 -662
374 -1073 447 -97 18 -165 22 -383 24 -146 2 -281 1 -300 -1z m455 -3275 c509
-65 956 -434 1125 -929 20 -60 59 -220 60 -246 0 -26 -247 -176 -412 -250
-308 -139 -617 -204 -963 -205 -386 0 -714 76 -1049 242 -97 49 -265 148 -315
187 l-23 19 17 83 c125 611 643 1066 1260 1108 113 8 185 6 300 -9z"/>
<path d="M4326 4274 c-21 -21 -26 -36 -26 -74 0 -38 5 -53 26 -74 21 -21 36
-26 74 -26 38 0 53 5 74 26 21 21 26 36 26 74 0 38 -5 53 -26 74 -21 21 -36
26 -74 26 -38 0 -53 -5 -74 -26z"/>
<path d="M2333 4035 c-319 -82 -568 -333 -649 -652 -34 -135 -34 -311 0 -446
82 -321 332 -571 653 -653 135 -34 311 -34 446 0 321 82 571 332 653 653 34
135 34 311 0 446 -82 322 -331 571 -653 653 -134 34 -317 33 -450 -1z m385
-201 c123 -26 223 -83 328 -188 144 -145 204 -288 204 -486 0 -198 -60 -340
-205 -486 -143 -143 -288 -205 -485 -205 -196 0 -342 62 -486 205 -144 145
-204 288 -204 486 0 198 60 341 204 486 182 181 387 241 644 188z"/>
</g>
</svg>
