<?xml version="1.0" standalone="no"?>
<!DOCTYPE svg PUBLIC "-//W3C//DTD SVG 20010904//EN"
 "http://www.w3.org/TR/2001/REC-SVG-20010904/DTD/svg10.dtd">
<svg version="1.0" xmlns="http://www.w3.org/2000/svg"
 width="512.000000pt" height="512.000000pt" viewBox="0 0 512.000000 512.000000"
 preserveAspectRatio="xMidYMid meet">
<metadata>
Created by potrace 1.16, written by Peter Selinger 2001-2019
</metadata>
<g transform="translate(0.000000,512.000000) scale(0.100000,-0.100000)"
 stroke="none">
<path d="M240 5111 c-84 -26 -168 -98 -211 -181 l-24 -45 0 -2325 0 -2325 24
-45 c32 -61 96 -126 156 -158 l50 -27 2325 0 2325 0 50 27 c60 32 124 97 156
158 l24 45 0 2325 0 2325 -27 50 c-32 60 -97 124 -158 156 l-45 24 -2310 2
c-1270 1 -2321 -2 -2335 -6z m4621 -194 c18 -12 44 -38 56 -56 l23 -34 0
-2267 0 -2267 -23 -34 c-12 -18 -38 -44 -56 -56 l-34 -23 -2267 0 -2267 0 -34
23 c-18 12 -44 38 -56 56 l-23 34 0 2267 0 2267 23 34 c12 18 38 44 56 56 l34
23 2267 0 2267 0 34 -23z"/>
<path d="M462 4773 c-24 -9 -44 -64 -37 -100 9 -48 53 -73 128 -73 70 0 110
19 127 59 15 37 7 74 -22 101 -18 17 -35 20 -102 19 -45 0 -87 -3 -94 -6z"/>
<path d="M875 4755 c-33 -32 -33 -84 -1 -122 23 -26 29 -28 104 -28 71 0 83 3
106 24 20 19 26 34 26 67 0 65 -30 84 -132 84 -70 0 -82 -3 -103 -25z"/>
<path d="M1302 4757 c-29 -31 -30 -99 -2 -127 26 -26 59 -33 132 -28 51 4 65
9 85 32 31 37 31 89 -2 121 -22 23 -32 25 -108 25 -74 0 -86 -3 -105 -23z"/>
<path d="M4032 4757 c-25 -27 -30 -91 -8 -119 25 -34 64 -38 334 -38 247 0
269 2 299 20 40 24 52 73 29 118 -8 16 -23 32 -31 36 -9 3 -148 6 -309 6
l-293 0 -21 -23z"/>
<path d="M435 4424 c-16 -8 -38 -23 -49 -32 -48 -43 -46 45 -46 -2010 l0
-1929 23 -34 c12 -18 38 -44 56 -56 l34 -23 2107 0 2107 0 34 23 c18 12 44 38
56 56 l23 34 0 1929 c0 2130 5 1970 -66 2024 l-37 29 -2106 2 c-1896 3 -2109
1 -2136 -13z m4165 -2034 l0 -1870 -2040 0 -2040 0 0 1870 0 1870 2040 0 2040
0 0 -1870z"/>
<path d="M888 4010 c-85 -15 -160 -78 -192 -161 -15 -40 -16 -104 -14 -624 3
-532 4 -583 21 -612 24 -45 77 -96 123 -119 37 -18 69 -19 693 -22 720 -3 708
-4 783 58 20 17 48 53 62 82 l26 52 0 578 c0 474 -3 585 -14 612 -21 50 -85
117 -136 140 -44 21 -59 21 -675 23 -346 0 -651 -3 -677 -7z m1296 -199 l26
-24 0 -544 0 -544 -25 -24 c-20 -21 -34 -25 -80 -25 l-55 0 0 38 c0 51 -21
126 -56 197 -30 63 -144 187 -182 199 -19 7 -19 9 13 56 89 133 67 331 -49
438 -57 53 -110 79 -182 91 -160 25 -304 -51 -373 -198 -22 -48 -26 -69 -26
-146 1 -79 4 -97 30 -148 15 -31 34 -62 41 -68 10 -8 -1 -21 -48 -57 -104 -79
-181 -215 -195 -343 l-6 -59 -44 0 c-49 0 -97 21 -107 45 -3 9 -6 256 -6 549
0 520 1 534 20 559 11 14 30 28 43 30 12 3 295 4 629 3 l606 -1 26 -24z m-574
-336 c68 -35 105 -125 81 -198 -17 -49 -79 -103 -129 -112 -79 -13 -173 53
-188 131 -8 42 8 101 36 136 42 54 139 75 200 43z m65 -526 c98 -46 177 -151
191 -252 l7 -47 -338 0 -338 0 7 42 c20 127 105 226 234 275 56 20 175 12 237
-18z"/>
<path d="M2939 4010 c-63 -11 -99 -31 -143 -80 -69 -76 -66 -48 -66 -688 l0
-578 26 -52 c14 -29 42 -65 62 -82 75 -62 63 -61 783 -58 624 3 656 4 693 22
46 23 99 74 123 119 17 29 18 80 21 614 3 577 2 583 -19 633 -12 27 -39 66
-61 86 -81 72 -43 69 -743 71 -346 0 -651 -2 -676 -7z m1297 -203 l24 -28 0
-534 c0 -293 -3 -541 -6 -550 -17 -44 -28 -45 -679 -45 l-616 0 -24 25 -25 24
0 544 0 544 23 20 c12 12 31 23 42 26 11 3 294 4 628 3 l609 -1 24 -28z"/>
<path d="M3308 3522 c-58 -58 -68 -74 -68 -103 0 -41 23 -77 56 -89 l24 -10 0
-179 c0 -178 0 -180 26 -210 34 -41 92 -44 129 -6 l25 24 0 290 c0 159 -3 297
-6 306 -8 21 -56 45 -90 45 -21 0 -45 -17 -96 -68z"/>
<path d="M3740 3524 c-38 -36 -71 -76 -74 -90 -10 -37 17 -89 53 -103 l31 -13
0 -185 c0 -182 0 -184 25 -208 18 -19 35 -25 65 -25 30 0 47 6 65 25 l25 24 0
291 0 292 -29 29 c-49 48 -81 41 -161 -37z"/>
<path d="M857 2296 c-81 -29 -138 -86 -165 -165 -9 -24 -12 -194 -12 -600 l0
-566 24 -50 c27 -59 88 -117 142 -136 32 -11 165 -14 694 -14 643 0 656 0 700
21 56 26 107 76 131 129 17 37 19 80 19 621 l0 580 -26 53 c-31 61 -96 114
-161 130 -67 17 -1297 14 -1346 -3z m1312 -181 c16 -8 31 -22 35 -30 3 -9 6
-258 6 -554 l0 -538 -26 -24 -26 -24 -623 0 -623 0 -26 24 -26 24 0 541 c1
568 0 558 45 584 14 8 190 11 628 12 514 0 612 -2 636 -15z"/>
<path d="M1457 1960 c-275 -47 -431 -360 -307 -616 153 -314 615 -315 770 -1
129 262 -29 570 -316 617 -66 11 -79 11 -147 0z m83 -555 c50 -49 90 -93 90
-96 0 -11 -58 -22 -107 -21 -56 2 -119 30 -162 73 -109 108 -92 292 34 377
l50 34 3 -139 3 -139 89 -89z m142 330 c75 -51 118 -162 97 -248 l-11 -49 -69
68 -69 68 0 93 c0 51 3 93 8 93 4 0 24 -11 44 -25z"/>
<path d="M2908 2297 c-64 -21 -123 -70 -151 -128 l-27 -53 0 -580 c0 -541 2
-584 19 -621 24 -53 75 -103 131 -129 44 -21 57 -21 700 -21 741 0 713 -3 788
79 75 81 73 60 70 706 -3 530 -4 578 -21 611 -24 47 -71 95 -121 122 -41 22
-45 22 -696 24 -483 1 -665 -1 -692 -10z m1305 -179 c47 -25 46 -13 47 -580
l0 -537 -24 -28 -24 -28 -625 0 -625 0 -26 24 -26 24 0 542 c0 570 -1 558 45
583 29 16 1228 16 1258 0z"/>
<path d="M3523 1856 c-27 -23 -28 -29 -31 -124 l-4 -100 -100 -4 c-95 -3 -101
-4 -124 -31 -32 -38 -32 -90 1 -122 22 -23 31 -25 124 -25 l99 0 4 -106 c3
-102 4 -107 31 -130 38 -32 90 -32 122 1 23 23 25 31 25 130 l0 105 105 0 c99
0 107 2 130 25 33 32 33 84 1 122 -23 26 -28 28 -130 31 l-106 4 0 100 c0 92
-2 101 -25 123 -32 33 -84 33 -122 1z"/>
</g>
</svg>
